<svg xmlns="http://www.w3.org/2000/svg" style="overflow: hidden; display: block; width: 1009px; height: 673px;" width="1009px" height="673px" viewBox="0 0 1009 673" xmlns:xlink="http://www.w3.org/1999/xlink"><rect width="1009px" height="673px" fill="#1E1E1E"/><clipPath id="ygc85_0"><rect x="25" y="25" width="958.188" height="622.75"/></clipPath><g clip-path="url(#ygc85_0)"><g style="pointer-events:visiblePainted" transform="translate(1938.371281585738 -224)" image-rendering="auto" shape-rendering="auto"><g style="box-sizing:initial;"><g class="uml-node" transform="translate(-1908.371281585738 254)"><rect fill="rgb(96,125,139)" stroke="rgb(96,125,139)" width="411.743" height="188" x="0" y="0" rx="0" ry="0" stroke-opacity="1" stroke-width="2" stroke-linecap="butt" stroke-linejoin="miter" stroke-miterlimit="10" fill-opacity="1"/><g transform="translate(0 0)"><text font-family="Arial" font-size="12px" font-style="normal" font-weight="normal" text-decoration="none" text-anchor="middle" fill="rgb(255,255,255)" fill-opacity="1" dy="0.9166666666666666em" transform="translate(205.87128158573785 18)">customtkinter.CTkLabel</text></g><rect fill="rgb(255,255,255)" x="1" y="50" width="409.7425631714757" height="2"/><g transform="translate(0 52)" cursor="pointer"><rect fill="rgb(96,125,139)" stroke="none" width="411.743" height="20" x="0" y="0" fill-opacity="1" rx="0" ry="0"/><polygon fill="white" points="-5,-3.5 5,-3.5 0,6" transform="translate(12 10)" class="uml-button"/><g class="uml-button"><rect fill="rgb(96,125,139)" fill-opacity="1" x="374.7425631714757px" y="2px" width="16px" height="16px"/><path fill="white" d="M8.5,16.5c-4.418,0-8,3.582-8,8s3.582,8,8,8c4.418,0,8-3.582,8-8S12.918,16.5,8.5,16.5z M13.5,25.5h-4v4h-2v-4h-4v-2h4v-4h2v4h4V25.5z" transform="matrix(0.8 0 0 0.8 375.7425631714757 -10)"/></g><g class="uml-button disabled"><rect fill="rgb(96,125,139)" fill-opacity="1" x="392.7425631714757px" y="2px" width="16px" height="16px"/><path fill="white" fill-opacity="0.5" d="M8.5,16.5c-4.418,0-8,3.582-8,8s3.582,8,8,8c4.418,0,8-3.582,8-8S12.918,16.5,8.5,16.5z M13.5,25.5h-10v-2h10V25.5z" transform="matrix(0.8 0 0 0.8 393.7425631714757 -10)"/></g></g><g transform="translate(25 52)" cursor="pointer"><text font-family="Arial" font-size="12px" font-style="normal" font-weight="normal" text-decoration="none" text-anchor="start" fill="rgb(255,255,255)" fill-opacity="1" dy="0.9166666666666666em" transform="translate(0 3)">Attributes</text></g><rect fill="rgb(255,255,255)" x="1" y="72" width="409.7425631714757" height="64"/><g transform="translate(25 72)"><text font-family="Arial" font-size="12px" font-style="normal" font-weight="normal" text-decoration="none" text-anchor="start" fill="rgb(0,0,0)" fill-opacity="1" dy="0.9166666666666666em" transform="translate(0 1)">master:</text></g><g transform="translate(25 88)"><text font-family="Arial" font-size="12px" font-style="normal" font-weight="normal" text-decoration="none" text-anchor="start" fill="rgb(0,0,0)" fill-opacity="1" dy="0.9166666666666666em" transform="translate(0 1)">text:</text></g><g transform="translate(25 104)"><text font-family="Arial" font-size="12px" font-style="normal" font-weight="normal" text-decoration="none" text-anchor="start" fill="rgb(0,0,0)" fill-opacity="1" dy="0.9166666666666666em" transform="translate(0 1)">image:</text></g><g transform="translate(25 120)"><text font-family="Arial" font-size="12px" font-style="normal" font-weight="normal" text-decoration="none" text-anchor="start" fill="rgb(0,0,0)" fill-opacity="1" dy="0.9166666666666666em" transform="translate(0 1)">textvariable:</text></g><g transform="translate(0 136)" cursor="pointer"><rect fill="rgb(96,125,139)" stroke="none" width="411.743" height="20" x="0" y="0" fill-opacity="1" rx="0" ry="0"/><polygon fill="white" points="-5,-3.5 5,-3.5 0,6" transform="translate(12 10)" class="uml-button"/><g class="uml-button"><rect fill="rgb(96,125,139)" fill-opacity="1" x="374.7425631714757px" y="2px" width="16px" height="16px"/><path fill="white" d="M8.5,16.5c-4.418,0-8,3.582-8,8s3.582,8,8,8c4.418,0,8-3.582,8-8S12.918,16.5,8.5,16.5z M13.5,25.5h-4v4h-2v-4h-4v-2h4v-4h2v4h4V25.5z" transform="matrix(0.8 0 0 0.8 375.7425631714757 -10)"/></g><g class="uml-button disabled"><rect fill="rgb(96,125,139)" fill-opacity="1" x="392.7425631714757px" y="2px" width="16px" height="16px"/><path fill="white" fill-opacity="0.5" d="M8.5,16.5c-4.418,0-8,3.582-8,8s3.582,8,8,8c4.418,0,8-3.582,8-8S12.918,16.5,8.5,16.5z M13.5,25.5h-10v-2h10V25.5z" transform="matrix(0.8 0 0 0.8 393.7425631714757 -10)"/></g></g><g transform="translate(25 136)" cursor="pointer"><text font-family="Arial" font-size="12px" font-style="normal" font-weight="normal" text-decoration="none" text-anchor="start" fill="rgb(255,255,255)" fill-opacity="1" dy="0.9166666666666666em" transform="translate(0 3)">Operations</text></g><rect fill="rgb(255,255,255)" x="1" y="156" width="409.7425631714757" height="32"/><g transform="translate(25 156)"><text font-family="Arial" font-size="12px" font-style="normal" font-weight="normal" text-decoration="none" text-anchor="start" fill="rgb(0,0,0)" fill-opacity="1" dy="0.9166666666666666em" transform="translate(0 1)">configure(self, require_redraw=False, **kwargs):</text></g><g transform="translate(25 172)"><text font-family="Arial" font-size="12px" font-style="normal" font-weight="normal" text-decoration="none" text-anchor="start" fill="rgb(0,0,0)" fill-opacity="1" dy="0.9166666666666666em" transform="translate(0 1)">grid(self, **kwargs):</text></g><rect fill="rgb(255,255,255)" x="1" y="188" width="409.7425631714757" height="0"/></g><g class="uml-node" transform="translate(-1447.121281585738 254)"><rect fill="rgb(96,125,139)" stroke="rgb(96,125,139)" width="486.938" height="172" x="0" y="0" rx="0" ry="0" stroke-opacity="1" stroke-width="2" stroke-linecap="butt" stroke-linejoin="miter" stroke-miterlimit="10" fill-opacity="1"/><g transform="translate(0 0)"><text font-family="Arial" font-size="12px" font-style="normal" font-weight="normal" text-decoration="none" text-anchor="middle" fill="rgb(255,255,255)" fill-opacity="1" dy="0.9166666666666666em" transform="translate(243.4692257831806 18)">customtkinter.CTkFrame</text></g><rect fill="rgb(255,255,255)" x="1" y="50" width="484.9384515663612" height="2"/><g transform="translate(0 52)" cursor="pointer"><rect fill="rgb(96,125,139)" stroke="none" width="486.938" height="20" x="0" y="0" fill-opacity="1" rx="0" ry="0"/><polygon fill="white" points="-5,-3.5 5,-3.5 0,6" transform="translate(12 10)" class="uml-button"/><g class="uml-button"><rect fill="rgb(96,125,139)" fill-opacity="1" x="449.9384515663612px" y="2px" width="16px" height="16px"/><path fill="white" d="M8.5,16.5c-4.418,0-8,3.582-8,8s3.582,8,8,8c4.418,0,8-3.582,8-8S12.918,16.5,8.5,16.5z M13.5,25.5h-4v4h-2v-4h-4v-2h4v-4h2v4h4V25.5z" transform="matrix(0.8 0 0 0.8 450.9384515663612 -10)"/></g><g class="uml-button disabled"><rect fill="rgb(96,125,139)" fill-opacity="1" x="467.9384515663612px" y="2px" width="16px" height="16px"/><path fill="white" fill-opacity="0.5" d="M8.5,16.5c-4.418,0-8,3.582-8,8s3.582,8,8,8c4.418,0,8-3.582,8-8S12.918,16.5,8.5,16.5z M13.5,25.5h-10v-2h10V25.5z" transform="matrix(0.8 0 0 0.8 468.9384515663612 -10)"/></g></g><g transform="translate(25 52)" cursor="pointer"><text font-family="Arial" font-size="12px" font-style="normal" font-weight="normal" text-decoration="none" text-anchor="start" fill="rgb(255,255,255)" fill-opacity="1" dy="0.9166666666666666em" transform="translate(0 3)">Attributes</text></g><rect fill="rgb(255,255,255)" x="1" y="72" width="484.9384515663612" height="32"/><g transform="translate(25 72)"><text font-family="Arial" font-size="12px" font-style="normal" font-weight="normal" text-decoration="none" text-anchor="start" fill="rgb(0,0,0)" fill-opacity="1" dy="0.9166666666666666em" transform="translate(0 1)">master:</text></g><g transform="translate(25 88)"><text font-family="Arial" font-size="12px" font-style="normal" font-weight="normal" text-decoration="none" text-anchor="start" fill="rgb(0,0,0)" fill-opacity="1" dy="0.9166666666666666em" transform="translate(0 1)">fg_color: Optional[Union[str, Tuple[str, str]]] = None</text></g><g transform="translate(0 104)" cursor="pointer"><rect fill="rgb(96,125,139)" stroke="none" width="486.938" height="20" x="0" y="0" fill-opacity="1" rx="0" ry="0"/><polygon fill="white" points="-5,-3.5 5,-3.5 0,6" transform="translate(12 10)" class="uml-button"/><g class="uml-button"><rect fill="rgb(96,125,139)" fill-opacity="1" x="449.9384515663612px" y="2px" width="16px" height="16px"/><path fill="white" d="M8.5,16.5c-4.418,0-8,3.582-8,8s3.582,8,8,8c4.418,0,8-3.582,8-8S12.918,16.5,8.5,16.5z M13.5,25.5h-4v4h-2v-4h-4v-2h4v-4h2v4h4V25.5z" transform="matrix(0.8 0 0 0.8 450.9384515663612 -10)"/></g><g class="uml-button disabled"><rect fill="rgb(96,125,139)" fill-opacity="1" x="467.9384515663612px" y="2px" width="16px" height="16px"/><path fill="white" fill-opacity="0.5" d="M8.5,16.5c-4.418,0-8,3.582-8,8s3.582,8,8,8c4.418,0,8-3.582,8-8S12.918,16.5,8.5,16.5z M13.5,25.5h-10v-2h10V25.5z" transform="matrix(0.8 0 0 0.8 468.9384515663612 -10)"/></g></g><g transform="translate(25 104)" cursor="pointer"><text font-family="Arial" font-size="12px" font-style="normal" font-weight="normal" text-decoration="none" text-anchor="start" fill="rgb(255,255,255)" fill-opacity="1" dy="0.9166666666666666em" transform="translate(0 3)">Operations</text></g><rect fill="rgb(255,255,255)" x="1" y="124" width="484.9384515663612" height="48"/><g transform="translate(25 124)"><text font-family="Arial" font-size="12px" font-style="normal" font-weight="normal" text-decoration="none" text-anchor="start" fill="rgb(0,0,0)" fill-opacity="1" dy="0.9166666666666666em" transform="translate(0 1)">grid_rowconfigure(self, index: _GridIndex, weight: int = ...) -&gt; _GridIndexInfo | Any:</text></g><g transform="translate(25 140)"><text font-family="Arial" font-size="12px" font-style="normal" font-weight="normal" text-decoration="none" text-anchor="start" fill="rgb(0,0,0)" fill-opacity="1" dy="0.9166666666666666em" transform="translate(0 1)">grid_columnconfigure(self, index: _GridIndex, weight: int = ...) -&gt; _GridIndexInfo | Any:</text></g><g transform="translate(25 156)"><text font-family="Arial" font-size="12px" font-style="normal" font-weight="normal" text-decoration="none" text-anchor="start" fill="rgb(0,0,0)" fill-opacity="1" dy="0.9166666666666666em" transform="translate(0 1)">grid(self, **kwargs):</text></g><rect fill="rgb(255,255,255)" x="1" y="172" width="484.9384515663612" height="0"/></g><g class="uml-node" transform="translate(-1908.371281585738 478.375)"><rect fill="rgb(96,125,139)" stroke="rgb(96,125,139)" width="411.743" height="172" x="0" y="0" rx="0" ry="0" stroke-opacity="1" stroke-width="2" stroke-linecap="butt" stroke-linejoin="miter" stroke-miterlimit="10" fill-opacity="1"/><g transform="translate(0 0)"><text font-family="Arial" font-size="12px" font-style="normal" font-weight="normal" text-decoration="none" text-anchor="middle" fill="rgb(255,255,255)" fill-opacity="1" dy="0.9166666666666666em" transform="translate(205.87128158573785 18)">customtkinter.CTkButton</text></g><rect fill="rgb(255,255,255)" x="1" y="50" width="409.7425631714757" height="2"/><g transform="translate(0 52)" cursor="pointer"><rect fill="rgb(96,125,139)" stroke="none" width="411.743" height="20" x="0" y="0" fill-opacity="1" rx="0" ry="0"/><polygon fill="white" points="-5,-3.5 5,-3.5 0,6" transform="translate(12 10)" class="uml-button"/><g class="uml-button"><rect fill="rgb(96,125,139)" fill-opacity="1" x="374.7425631714757px" y="2px" width="16px" height="16px"/><path fill="white" d="M8.5,16.5c-4.418,0-8,3.582-8,8s3.582,8,8,8c4.418,0,8-3.582,8-8S12.918,16.5,8.5,16.5z M13.5,25.5h-4v4h-2v-4h-4v-2h4v-4h2v4h4V25.5z" transform="matrix(0.8 0 0 0.8 375.7425631714757 -10)"/></g><g class="uml-button disabled"><rect fill="rgb(96,125,139)" fill-opacity="1" x="392.7425631714757px" y="2px" width="16px" height="16px"/><path fill="white" fill-opacity="0.5" d="M8.5,16.5c-4.418,0-8,3.582-8,8s3.582,8,8,8c4.418,0,8-3.582,8-8S12.918,16.5,8.5,16.5z M13.5,25.5h-10v-2h10V25.5z" transform="matrix(0.8 0 0 0.8 393.7425631714757 -10)"/></g></g><g transform="translate(25 52)" cursor="pointer"><text font-family="Arial" font-size="12px" font-style="normal" font-weight="normal" text-decoration="none" text-anchor="start" fill="rgb(255,255,255)" fill-opacity="1" dy="0.9166666666666666em" transform="translate(0 3)">Attributes</text></g><rect fill="rgb(255,255,255)" x="1" y="72" width="409.7425631714757" height="48"/><g transform="translate(25 72)"><text font-family="Arial" font-size="12px" font-style="normal" font-weight="normal" text-decoration="none" text-anchor="start" fill="rgb(0,0,0)" fill-opacity="1" dy="0.9166666666666666em" transform="translate(0 1)">master:</text></g><g transform="translate(25 88)"><text font-family="Arial" font-size="12px" font-style="normal" font-weight="normal" text-decoration="none" text-anchor="start" fill="rgb(0,0,0)" fill-opacity="1" dy="0.9166666666666666em" transform="translate(0 1)">text:</text></g><g transform="translate(25 104)"><text font-family="Arial" font-size="12px" font-style="normal" font-weight="normal" text-decoration="none" text-anchor="start" fill="rgb(0,0,0)" fill-opacity="1" dy="0.9166666666666666em" transform="translate(0 1)">command:</text></g><g transform="translate(0 120)" cursor="pointer"><rect fill="rgb(96,125,139)" stroke="none" width="411.743" height="20" x="0" y="0" fill-opacity="1" rx="0" ry="0"/><polygon fill="white" points="-5,-3.5 5,-3.5 0,6" transform="translate(12 10)" class="uml-button"/><g class="uml-button"><rect fill="rgb(96,125,139)" fill-opacity="1" x="374.7425631714757px" y="2px" width="16px" height="16px"/><path fill="white" d="M8.5,16.5c-4.418,0-8,3.582-8,8s3.582,8,8,8c4.418,0,8-3.582,8-8S12.918,16.5,8.5,16.5z M13.5,25.5h-4v4h-2v-4h-4v-2h4v-4h2v4h4V25.5z" transform="matrix(0.8 0 0 0.8 375.7425631714757 -10)"/></g><g class="uml-button disabled"><rect fill="rgb(96,125,139)" fill-opacity="1" x="392.7425631714757px" y="2px" width="16px" height="16px"/><path fill="white" fill-opacity="0.5" d="M8.5,16.5c-4.418,0-8,3.582-8,8s3.582,8,8,8c4.418,0,8-3.582,8-8S12.918,16.5,8.5,16.5z M13.5,25.5h-10v-2h10V25.5z" transform="matrix(0.8 0 0 0.8 393.7425631714757 -10)"/></g></g><g transform="translate(25 120)" cursor="pointer"><text font-family="Arial" font-size="12px" font-style="normal" font-weight="normal" text-decoration="none" text-anchor="start" fill="rgb(255,255,255)" fill-opacity="1" dy="0.9166666666666666em" transform="translate(0 3)">Operations</text></g><rect fill="rgb(255,255,255)" x="1" y="140" width="409.7425631714757" height="32"/><g transform="translate(25 140)"><text font-family="Arial" font-size="12px" font-style="normal" font-weight="normal" text-decoration="none" text-anchor="start" fill="rgb(0,0,0)" fill-opacity="1" dy="0.9166666666666666em" transform="translate(0 1)">grid_configure(self, column: int = ..., row: int = ..., ...) -&gt; None:</text></g><g transform="translate(25 156)"><text font-family="Arial" font-size="12px" font-style="normal" font-weight="normal" text-decoration="none" text-anchor="start" fill="rgb(0,0,0)" fill-opacity="1" dy="0.9166666666666666em" transform="translate(0 1)">grid(self, **kwargs):</text></g><rect fill="rgb(255,255,255)" x="1" y="172" width="409.7425631714757" height="0"/></g><g class="uml-node" transform="translate(-1409.5233373882952 478.375)"><rect fill="rgb(96,125,139)" stroke="rgb(96,125,139)" width="411.743" height="156" x="0" y="0" rx="0" ry="0" stroke-opacity="1" stroke-width="2" stroke-linecap="butt" stroke-linejoin="miter" stroke-miterlimit="10" fill-opacity="1"/><g transform="translate(0 0)"><text font-family="Arial" font-size="12px" font-style="normal" font-weight="normal" text-decoration="none" text-anchor="middle" fill="rgb(255,255,255)" fill-opacity="1" dy="0.9166666666666666em" transform="translate(205.87128158573785 18)">customtkinter.CTkVariable (IntVar, StringVar, DoubleVar)</text></g><rect fill="rgb(255,255,255)" x="1" y="50" width="409.7425631714757" height="2"/><g transform="translate(0 52)" cursor="pointer"><rect fill="rgb(96,125,139)" stroke="none" width="411.743" height="20" x="0" y="0" fill-opacity="1" rx="0" ry="0"/><polygon fill="white" points="-5,-3.5 5,-3.5 0,6" transform="translate(12 10)" class="uml-button"/><g class="uml-button"><rect fill="rgb(96,125,139)" fill-opacity="1" x="374.7425631714757px" y="2px" width="16px" height="16px"/><path fill="white" d="M8.5,16.5c-4.418,0-8,3.582-8,8s3.582,8,8,8c4.418,0,8-3.582,8-8S12.918,16.5,8.5,16.5z M13.5,25.5h-4v4h-2v-4h-4v-2h4v-4h2v4h4V25.5z" transform="matrix(0.8 0 0 0.8 375.7425631714757 -10)"/></g><g class="uml-button disabled"><rect fill="rgb(96,125,139)" fill-opacity="1" x="392.7425631714757px" y="2px" width="16px" height="16px"/><path fill="white" fill-opacity="0.5" d="M8.5,16.5c-4.418,0-8,3.582-8,8s3.582,8,8,8c4.418,0,8-3.582,8-8S12.918,16.5,8.5,16.5z M13.5,25.5h-10v-2h10V25.5z" transform="matrix(0.8 0 0 0.8 393.7425631714757 -10)"/></g></g><g transform="translate(25 52)" cursor="pointer"><text font-family="Arial" font-size="12px" font-style="normal" font-weight="normal" text-decoration="none" text-anchor="start" fill="rgb(255,255,255)" fill-opacity="1" dy="0.9166666666666666em" transform="translate(0 3)">Attributes</text></g><rect fill="rgb(255,255,255)" x="1" y="72" width="409.7425631714757" height="16"/><g transform="translate(25 72)"><text font-family="Arial" font-size="12px" font-style="normal" font-weight="normal" text-decoration="none" text-anchor="start" fill="rgb(0,0,0)" fill-opacity="1" dy="0.9166666666666666em" transform="translate(0 1)">value:</text></g><g transform="translate(0 88)" cursor="pointer"><rect fill="rgb(96,125,139)" stroke="none" width="411.743" height="20" x="0" y="0" fill-opacity="1" rx="0" ry="0"/><polygon fill="white" points="-5,-3.5 5,-3.5 0,6" transform="translate(12 10)" class="uml-button"/><g class="uml-button"><rect fill="rgb(96,125,139)" fill-opacity="1" x="374.7425631714757px" y="2px" width="16px" height="16px"/><path fill="white" d="M8.5,16.5c-4.418,0-8,3.582-8,8s3.582,8,8,8c4.418,0,8-3.582,8-8S12.918,16.5,8.5,16.5z M13.5,25.5h-4v4h-2v-4h-4v-2h4v-4h2v4h4V25.5z" transform="matrix(0.8 0 0 0.8 375.7425631714757 -10)"/></g><g class="uml-button disabled"><rect fill="rgb(96,125,139)" fill-opacity="1" x="392.7425631714757px" y="2px" width="16px" height="16px"/><path fill="white" fill-opacity="0.5" d="M8.5,16.5c-4.418,0-8,3.582-8,8s3.582,8,8,8c4.418,0,8-3.582,8-8S12.918,16.5,8.5,16.5z M13.5,25.5h-10v-2h10V25.5z" transform="matrix(0.8 0 0 0.8 393.7425631714757 -10)"/></g></g><g transform="translate(25 88)" cursor="pointer"><text font-family="Arial" font-size="12px" font-style="normal" font-weight="normal" text-decoration="none" text-anchor="start" fill="rgb(255,255,255)" fill-opacity="1" dy="0.9166666666666666em" transform="translate(0 3)">Operations</text></g><rect fill="rgb(255,255,255)" x="1" y="108" width="409.7425631714757" height="48"/><g transform="translate(25 108)"><text font-family="Arial" font-size="12px" font-style="normal" font-weight="normal" text-decoration="none" text-anchor="start" fill="rgb(0,0,0)" fill-opacity="1" dy="0.9166666666666666em" transform="translate(0 1)">set(self, value: _T) -&gt; None:</text></g><g transform="translate(25 124)"><text font-family="Arial" font-size="12px" font-style="normal" font-weight="normal" text-decoration="none" text-anchor="start" fill="rgb(0,0,0)" fill-opacity="1" dy="0.9166666666666666em" transform="translate(0 1)">get(self) -&gt; _T:</text></g><g transform="translate(25 140)"><text font-family="Arial" font-size="12px" font-style="normal" font-weight="normal" text-decoration="none" text-anchor="start" fill="rgb(0,0,0)" fill-opacity="1" dy="0.9166666666666666em" transform="translate(0 1)" clip-path="url(#ygc83_2)">trace_add(self, mode: _TraceMode, callback: Callable[[str, str, str], Any]):</text><clipPath id="ygc83_2"><rect x="0" y="-1" width="381.743" height="16"/></clipPath></g><rect fill="rgb(255,255,255)" x="1" y="156" width="409.7425631714757" height="0"/></g><g class="uml-node" transform="translate(-1908.371281585738 694.75)"><rect fill="rgb(96,125,139)" stroke="rgb(96,125,139)" width="411.743" height="172" x="0" y="0" rx="0" ry="0" stroke-opacity="1" stroke-width="2" stroke-linecap="butt" stroke-linejoin="miter" stroke-miterlimit="10" fill-opacity="1"/><g transform="translate(0 0)"><text font-family="Arial" font-size="12px" font-style="normal" font-weight="normal" text-decoration="none" text-anchor="middle" fill="rgb(255,255,255)" fill-opacity="1" dy="0.9166666666666666em" transform="translate(205.87128158573785 18)">customtkinter.CTkEntry</text></g><rect fill="rgb(255,255,255)" x="1" y="50" width="409.7425631714757" height="2"/><g transform="translate(0 52)" cursor="pointer"><rect fill="rgb(96,125,139)" stroke="none" width="411.743" height="20" x="0" y="0" fill-opacity="1" rx="0" ry="0"/><polygon fill="white" points="-5,-3.5 5,-3.5 0,6" transform="translate(12 10)" class="uml-button"/><g class="uml-button"><rect fill="rgb(96,125,139)" fill-opacity="1" x="374.7425631714757px" y="2px" width="16px" height="16px"/><path fill="white" d="M8.5,16.5c-4.418,0-8,3.582-8,8s3.582,8,8,8c4.418,0,8-3.582,8-8S12.918,16.5,8.5,16.5z M13.5,25.5h-4v4h-2v-4h-4v-2h4v-4h2v4h4V25.5z" transform="matrix(0.8 0 0 0.8 375.7425631714757 -10)"/></g><g class="uml-button disabled"><rect fill="rgb(96,125,139)" fill-opacity="1" x="392.7425631714757px" y="2px" width="16px" height="16px"/><path fill="white" fill-opacity="0.5" d="M8.5,16.5c-4.418,0-8,3.582-8,8s3.582,8,8,8c4.418,0,8-3.582,8-8S12.918,16.5,8.5,16.5z M13.5,25.5h-10v-2h10V25.5z" transform="matrix(0.8 0 0 0.8 393.7425631714757 -10)"/></g></g><g transform="translate(25 52)" cursor="pointer"><text font-family="Arial" font-size="12px" font-style="normal" font-weight="normal" text-decoration="none" text-anchor="start" fill="rgb(255,255,255)" fill-opacity="1" dy="0.9166666666666666em" transform="translate(0 3)">Attributes</text></g><rect fill="rgb(255,255,255)" x="1" y="72" width="409.7425631714757" height="64"/><g transform="translate(25 72)"><text font-family="Arial" font-size="12px" font-style="normal" font-weight="normal" text-decoration="none" text-anchor="start" fill="rgb(0,0,0)" fill-opacity="1" dy="0.9166666666666666em" transform="translate(0 1)">master:</text></g><g transform="translate(25 88)"><text font-family="Arial" font-size="12px" font-style="normal" font-weight="normal" text-decoration="none" text-anchor="start" fill="rgb(0,0,0)" fill-opacity="1" dy="0.9166666666666666em" transform="translate(0 1)">textvariable:</text></g><g transform="translate(25 104)"><text font-family="Arial" font-size="12px" font-style="normal" font-weight="normal" text-decoration="none" text-anchor="start" fill="rgb(0,0,0)" fill-opacity="1" dy="0.9166666666666666em" transform="translate(0 1)">state:</text></g><g transform="translate(25 120)"><text font-family="Arial" font-size="12px" font-style="normal" font-weight="normal" text-decoration="none" text-anchor="start" fill="rgb(0,0,0)" fill-opacity="1" dy="0.9166666666666666em" transform="translate(0 1)">justify:</text></g><g transform="translate(0 136)" cursor="pointer"><rect fill="rgb(96,125,139)" stroke="none" width="411.743" height="20" x="0" y="0" fill-opacity="1" rx="0" ry="0"/><polygon fill="white" points="-5,-3.5 5,-3.5 0,6" transform="translate(12 10)" class="uml-button"/><g class="uml-button"><rect fill="rgb(96,125,139)" fill-opacity="1" x="374.7425631714757px" y="2px" width="16px" height="16px"/><path fill="white" d="M8.5,16.5c-4.418,0-8,3.582-8,8s3.582,8,8,8c4.418,0,8-3.582,8-8S12.918,16.5,8.5,16.5z M13.5,25.5h-4v4h-2v-4h-4v-2h4v-4h2v4h4V25.5z" transform="matrix(0.8 0 0 0.8 375.7425631714757 -10)"/></g><g class="uml-button disabled"><rect fill="rgb(96,125,139)" fill-opacity="1" x="392.7425631714757px" y="2px" width="16px" height="16px"/><path fill="white" fill-opacity="0.5" d="M8.5,16.5c-4.418,0-8,3.582-8,8s3.582,8,8,8c4.418,0,8-3.582,8-8S12.918,16.5,8.5,16.5z M13.5,25.5h-10v-2h10V25.5z" transform="matrix(0.8 0 0 0.8 393.7425631714757 -10)"/></g></g><g transform="translate(25 136)" cursor="pointer"><text font-family="Arial" font-size="12px" font-style="normal" font-weight="normal" text-decoration="none" text-anchor="start" fill="rgb(255,255,255)" fill-opacity="1" dy="0.9166666666666666em" transform="translate(0 3)">Operations</text></g><rect fill="rgb(255,255,255)" x="1" y="156" width="409.7425631714757" height="16"/><g transform="translate(25 156)"><text font-family="Arial" font-size="12px" font-style="normal" font-weight="normal" text-decoration="none" text-anchor="start" fill="rgb(0,0,0)" fill-opacity="1" dy="0.9166666666666666em" transform="translate(0 1)">grid(self, **kwargs):</text></g><rect fill="rgb(255,255,255)" x="1" y="172" width="409.7425631714757" height="0"/></g><g class="uml-node" transform="translate(-1437.4415468849393 678.75)"><rect fill="rgb(96,125,139)" stroke="rgb(96,125,139)" width="467.579" height="188" x="0" y="0" rx="0" ry="0" stroke-opacity="1" stroke-width="2" stroke-linecap="butt" stroke-linejoin="miter" stroke-miterlimit="10" fill-opacity="1"/><g transform="translate(0 0)"><text font-family="Arial" font-size="12px" font-style="normal" font-weight="normal" text-decoration="none" text-anchor="middle" fill="rgb(255,255,255)" fill-opacity="1" dy="0.9166666666666666em" transform="translate(233.7894910823823 18)">customtkinter.CTkToplevel</text></g><rect fill="rgb(255,255,255)" x="1" y="50" width="465.5789821647646" height="2"/><g transform="translate(0 52)" cursor="pointer"><rect fill="rgb(96,125,139)" stroke="none" width="467.579" height="20" x="0" y="0" fill-opacity="1" rx="0" ry="0"/><polygon fill="white" points="-5,-3.5 5,-3.5 0,6" transform="translate(12 10)" class="uml-button"/><g class="uml-button"><rect fill="rgb(96,125,139)" fill-opacity="1" x="430.5789821647646px" y="2px" width="16px" height="16px"/><path fill="white" d="M8.5,16.5c-4.418,0-8,3.582-8,8s3.582,8,8,8c4.418,0,8-3.582,8-8S12.918,16.5,8.5,16.5z M13.5,25.5h-4v4h-2v-4h-4v-2h4v-4h2v4h4V25.5z" transform="matrix(0.8 0 0 0.8 431.5789821647646 -10)"/></g><g class="uml-button disabled"><rect fill="rgb(96,125,139)" fill-opacity="1" x="448.5789821647646px" y="2px" width="16px" height="16px"/><path fill="white" fill-opacity="0.5" d="M8.5,16.5c-4.418,0-8,3.582-8,8s3.582,8,8,8c4.418,0,8-3.582,8-8S12.918,16.5,8.5,16.5z M13.5,25.5h-10v-2h10V25.5z" transform="matrix(0.8 0 0 0.8 449.5789821647646 -10)"/></g></g><g transform="translate(25 52)" cursor="pointer"><text font-family="Arial" font-size="12px" font-style="normal" font-weight="normal" text-decoration="none" text-anchor="start" fill="rgb(255,255,255)" fill-opacity="1" dy="0.9166666666666666em" transform="translate(0 3)">Attributes</text></g><rect fill="rgb(255,255,255)" x="1" y="72" width="465.5789821647646" height="16"/><g transform="translate(25 72)"><text font-family="Arial" font-size="12px" font-style="normal" font-weight="normal" text-decoration="none" text-anchor="start" fill="rgb(0,0,0)" fill-opacity="1" dy="0.9166666666666666em" transform="translate(0 1)">master:</text></g><g transform="translate(0 88)" cursor="pointer"><rect fill="rgb(96,125,139)" stroke="none" width="467.579" height="20" x="0" y="0" fill-opacity="1" rx="0" ry="0"/><polygon fill="white" points="-5,-3.5 5,-3.5 0,6" transform="translate(12 10)" class="uml-button"/><g class="uml-button"><rect fill="rgb(96,125,139)" fill-opacity="1" x="430.5789821647646px" y="2px" width="16px" height="16px"/><path fill="white" d="M8.5,16.5c-4.418,0-8,3.582-8,8s3.582,8,8,8c4.418,0,8-3.582,8-8S12.918,16.5,8.5,16.5z M13.5,25.5h-4v4h-2v-4h-4v-2h4v-4h2v4h4V25.5z" transform="matrix(0.8 0 0 0.8 431.5789821647646 -10)"/></g><g class="uml-button disabled"><rect fill="rgb(96,125,139)" fill-opacity="1" x="448.5789821647646px" y="2px" width="16px" height="16px"/><path fill="white" fill-opacity="0.5" d="M8.5,16.5c-4.418,0-8,3.582-8,8s3.582,8,8,8c4.418,0,8-3.582,8-8S12.918,16.5,8.5,16.5z M13.5,25.5h-10v-2h10V25.5z" transform="matrix(0.8 0 0 0.8 449.5789821647646 -10)"/></g></g><g transform="translate(25 88)" cursor="pointer"><text font-family="Arial" font-size="12px" font-style="normal" font-weight="normal" text-decoration="none" text-anchor="start" fill="rgb(255,255,255)" fill-opacity="1" dy="0.9166666666666666em" transform="translate(0 3)">Operations</text></g><rect fill="rgb(255,255,255)" x="1" y="108" width="465.5789821647646" height="80"/><g transform="translate(25 108)"><text font-family="Arial" font-size="12px" font-style="normal" font-weight="normal" text-decoration="none" text-anchor="start" fill="rgb(0,0,0)" fill-opacity="1" dy="0.9166666666666666em" transform="translate(0 1)">title(self, string: str):</text></g><g transform="translate(25 124)"><text font-family="Arial" font-size="12px" font-style="normal" font-weight="normal" text-decoration="none" text-anchor="start" fill="rgb(0,0,0)" fill-opacity="1" dy="0.9166666666666666em" transform="translate(0 1)">geometry(self, geometry_string: str = None):</text></g><g transform="translate(25 140)"><text font-family="Arial" font-size="12px" font-style="normal" font-weight="normal" text-decoration="none" text-anchor="start" fill="rgb(0,0,0)" fill-opacity="1" dy="0.9166666666666666em" transform="translate(0 1)">resizable(self, width: bool = None, height: bool = None):</text></g><g transform="translate(25 156)"><text font-family="Arial" font-size="12px" font-style="normal" font-weight="normal" text-decoration="none" text-anchor="start" fill="rgb(0,0,0)" fill-opacity="1" dy="0.9166666666666666em" transform="translate(0 1)">grid_rowconfigure(self, index: _GridIndex, weight: int = ...) -&gt; _GridIndexInfo | Any:</text></g><g transform="translate(25 172)"><text font-family="Arial" font-size="12px" font-style="normal" font-weight="normal" text-decoration="none" text-anchor="start" fill="rgb(0,0,0)" fill-opacity="1" dy="0.9166666666666666em" transform="translate(0 1)" clip-path="url(#ygc83_3)">grid_columnconfigure(self, index: _GridIndex, weight: int = ...) -&gt; _GridIndexInfo | Any:</text><clipPath id="ygc83_3"><rect x="0" y="-1" width="437.579" height="16"/></clipPath></g><rect fill="rgb(255,255,255)" x="1" y="188" width="465.5789821647646" height="0"/></g></g></g></g><defs/></svg>